<?xml version="1.0" standalone="no"?>
<!DOCTYPE svg PUBLIC "-//W3C//DTD SVG 20010904//EN"
 "http://www.w3.org/TR/2001/REC-SVG-20010904/DTD/svg10.dtd">
<svg version="1.0" xmlns="http://www.w3.org/2000/svg"
 width="256.000000pt" height="256.000000pt" viewBox="0 0 256.000000 256.000000"
 preserveAspectRatio="xMidYMid meet">
<metadata>
Created by potrace 1.14, written by Peter Selinger 2001-2017
</metadata>
<g transform="translate(0.000000,256.000000) scale(0.100000,-0.100000)"
fill="#000000" stroke="none">
<path d="M650 1697 c0 -28 -57 -76 -104 -89 l-46 -12 0 -48 0 -48 65 0 65 0 2
-227 3 -228 70 0 70 0 0 330 0 330 -62 3 c-50 2 -63 0 -63 -11z"/>
<path d="M840 1645 l0 -65 610 0 610 0 0 65 0 65 -610 0 -610 0 0 -65z"/>
<path d="M1035 1504 c-16 -8 -38 -23 -47 -31 -17 -15 -18 -14 -18 5 0 20 -5
22 -65 22 l-65 0 0 -230 0 -231 68 3 67 3 5 153 c5 147 6 155 29 173 13 10 30
19 38 19 18 0 56 -19 65 -34 4 -6 8 -77 8 -158 l0 -148 70 0 70 0 0 135 c0
147 8 179 50 193 35 13 85 -8 93 -39 4 -13 7 -86 7 -161 l0 -138 65 0 65 0 0
178 c0 199 -7 228 -69 269 -67 45 -149 42 -205 -7 l-33 -30 -19 21 c-44 49
-121 63 -179 33z"/>
<path d="M1725 1501 c-49 -22 -99 -77 -115 -126 -7 -20 -10 -66 -8 -101 5 -79
42 -138 108 -171 58 -30 142 -31 188 -3 l32 20 0 -34 c0 -103 -131 -154 -194
-74 l-24 32 -56 -14 c-64 -15 -69 -28 -33 -81 79 -117 302 -130 387 -22 47 60
50 81 50 339 l0 244 -60 0 c-53 0 -60 -2 -60 -19 0 -19 -2 -19 -42 4 -52 30
-116 32 -173 6z m150 -113 c57 -26 72 -107 29 -157 -21 -26 -33 -31 -68 -31
-51 0 -81 20 -96 64 -16 48 7 102 52 121 41 18 50 18 83 3z"/>
<path d="M642 923 l3 -68 470 0 470 0 3 68 3 67 -476 0 -476 0 3 -67z"/>
</g>
</svg>
